<svg width="466" height="137" viewBox="0 0 466 137" fill="none" xmlns="http://www.w3.org/2000/svg">
<path d="M23.416 107.616C21.112 107.424 18.808 106.704 16.504 105.456C14.2 104.208 12.088 102.912 10.168 101.568C8.248 100.224 6.952 99.312 6.28 98.832C4.648 97.2 3.4 95.472 2.536 93.648C1.672 91.728 0.952 89.232 0.376001 86.16C0.184001 85.008 0.088001 84 0.088001 83.136C0.088001 80.256 0.568001 76.752 1.528 72.624C2.584 68.4 3.64 65.136 4.696 62.832C6.808 57.744 11.464 49.584 18.664 38.352C19.048 37.968 19.288 37.728 19.384 37.632C19.576 37.44 19.624 37.344 19.528 37.344C19.528 37.248 19.528 37.2 19.528 37.2C19.528 36.528 20.92 33.552 23.704 28.272C25.336 26.544 26.152 25.056 26.152 23.808C26.152 23.136 26.008 22.608 25.72 22.224C25.432 21.84 25.816 21.024 26.872 19.776C27.928 18.432 29.368 16.992 31.192 15.456C33.112 13.824 35.128 12.432 37.24 11.28C39.832 9.264 42.376 8.256 44.872 8.256C45.64 8.256 46.264 8.4 46.744 8.688C47.32 8.88 47.656 9.216 47.752 9.696C47.752 10.272 49.672 10.08 53.512 9.11999C55.24 8.73599 56.488 8.49599 57.256 8.39999C57.64 7.92 58.6 7.53599 60.136 7.24799C61.768 6.86399 64.024 6.47999 66.904 6.096C68.44 6.192 70.312 6.192 72.52 6.096C74.824 5.99999 76.312 5.90399 76.984 5.80799C77.656 5.616 78.616 6.048 79.864 7.10399C81.208 8.16 82.264 9.504 83.032 11.136C83.224 11.712 83.32 12.144 83.32 12.432C83.32 13.872 82.408 15.12 80.584 16.176C78.76 17.136 76.12 17.808 72.664 18.192C69.112 18.672 65.992 19.152 63.304 19.632C60.616 20.112 57.256 20.784 53.224 21.648L50.2 22.224C47.224 22.704 45.016 23.328 43.576 24.096C42.136 24.864 40.6 26.544 38.968 29.136C38.296 29.616 37.432 30.864 36.376 32.88C35.32 34.8 34.264 36.816 33.208 38.928L30.328 42.816C28.12 45.792 26.728 47.76 26.152 48.72C25.672 49.584 25.576 50.208 25.864 50.592C26.248 50.688 26.92 50.832 27.88 51.024C28.936 51.216 29.8 51.36 30.472 51.456C31.336 50.976 32.536 50.64 34.072 50.448C35.608 50.256 36.712 50.064 37.384 49.872L40.552 49.008C46.504 47.472 50.872 46.368 53.656 45.696C56.44 45.024 58.504 44.592 59.848 44.4C60.328 44.016 60.904 43.824 61.576 43.824C62.632 43.824 63.64 44.352 64.6 45.408C65.656 46.368 66.424 47.52 66.904 48.864C67.288 50.208 67.48 51.072 67.48 51.456C67.48 53.088 66.52 54.336 64.6 55.2C62.68 55.968 58.84 57.024 53.08 58.368C44.728 60.384 39.496 61.68 37.384 62.256C31.144 64.08 26.536 64.992 23.56 64.992C21.064 64.992 19.864 64.176 19.96 62.544C19.096 62.064 18.088 62.928 16.936 65.136C15.784 67.344 14.776 70.08 13.912 73.344C13.144 76.608 12.76 79.44 12.76 81.84C12.76 83.088 12.904 84.144 13.192 85.008C14.056 87.312 15.352 89.28 17.08 90.912C18.808 92.448 21.208 93.648 24.28 94.512C24.952 94.608 25.768 94.704 26.728 94.8C27.784 94.896 28.984 94.944 30.328 94.944C32.248 94.944 34.168 94.56 36.088 93.792C43.576 92.544 48.856 90.816 51.928 88.608C52.408 88.416 52.84 88.08 53.224 87.6C53.704 87.12 54.136 86.88 54.52 86.88L54.376 87.168C54.376 87.264 54.664 87.072 55.24 86.592C55.816 86.016 56.44 85.44 57.112 84.864C59.8 82.56 62.776 81.408 66.04 81.408C67.192 81.408 68.152 81.6 68.92 81.984C69.784 82.272 70.264 82.56 70.36 82.848C70.936 83.808 70.648 85.344 69.496 87.456C68.344 89.568 66.52 91.776 64.024 94.08C61.624 96.384 58.936 98.4 55.96 100.128C51.256 102.624 45.976 104.448 40.12 105.6C34.36 106.848 28.792 107.52 23.416 107.616ZM97.7459 102.576C96.5939 102.768 95.6819 102.864 95.0099 102.864C91.0739 102.864 87.5699 101.616 84.4979 99.12C81.5219 96.528 80.0339 93.264 80.0339 89.328L79.8899 87.024C79.8899 82.512 80.8979 77.28 82.9139 71.328C84.9299 65.376 87.4259 60.528 90.4019 56.784C92.8019 54 94.8659 51.744 96.5939 50.016C98.3219 48.288 99.9059 47.136 101.346 46.56C102.594 46.08 104.178 45.648 106.098 45.264C108.018 44.88 109.458 44.688 110.418 44.688C112.338 45.168 114.114 45.84 115.746 46.704C117.474 47.568 118.338 48.528 118.338 49.584L119.058 50.304C119.73 50.304 120.498 51.36 121.362 53.472C122.322 55.584 122.802 57.504 122.802 59.232C122.802 60.096 122.658 60.816 122.37 61.392C121.986 63.216 121.218 64.992 120.066 66.72C119.01 68.448 118.098 69.312 117.33 69.312C116.274 69.312 115.746 69.6 115.746 70.176C115.746 70.656 115.17 70.896 114.018 70.896C113.058 70.896 112.05 70.704 110.994 70.32C109.938 69.84 109.314 69.264 109.122 68.592C109.122 68.112 109.506 66.192 110.274 62.832C110.562 61.392 110.706 60.192 110.706 59.232C110.706 57.504 110.13 56.64 108.978 56.64C108.69 56.64 107.97 56.832 106.818 57.216C104.322 58.56 102.306 60.144 100.77 61.968C99.3299 63.696 98.0339 66.096 96.8819 69.168C95.7299 72.24 94.3859 76.704 92.8499 82.56C92.5619 83.712 92.4179 84.768 92.4179 85.728C92.4179 86.88 92.5619 87.84 92.8499 88.608C93.1379 89.28 93.4259 89.664 93.7139 89.76C94.1939 89.952 95.0579 90.048 96.3059 90.048C98.7059 90.048 100.626 89.616 102.066 88.752C103.794 87.792 105.474 86.736 107.106 85.584C108.738 84.336 109.746 83.568 110.13 83.28C110.322 83.088 110.706 82.56 111.282 81.696C111.858 80.736 112.482 80.112 113.154 79.824C113.73 78.96 114.45 78.432 115.314 78.24C116.178 78.048 117.042 77.952 117.906 77.952C118.77 77.952 119.346 77.952 119.634 77.952C120.882 78.336 122.082 79.2 123.234 80.544C124.386 81.888 124.578 82.752 123.81 83.136C123.522 83.136 123.33 83.232 123.234 83.424C123.138 83.616 123.09 83.76 123.09 83.856C123.282 84.336 122.514 85.632 120.786 87.744C119.058 89.76 117.138 91.728 115.026 93.648C112.914 95.472 111.474 96.384 110.706 96.384C110.322 96.384 109.986 96.432 109.698 96.528C109.41 96.624 109.266 96.864 109.266 97.248C109.266 97.632 107.778 98.544 104.802 99.984C101.922 101.328 99.5699 102.192 97.7459 102.576ZM142.567 100.992C141.415 100.992 140.503 100.8 139.831 100.416C139.159 100.032 138.199 99.312 136.951 98.256C135.031 96.24 133.543 94.176 132.487 92.064C131.431 89.856 131.047 87.936 131.335 86.304C131.623 85.632 131.719 84.96 131.623 84.288C131.623 83.616 131.623 83.184 131.623 82.992C131.239 82.608 131.047 82.368 131.047 82.272C131.047 82.08 131.143 81.936 131.335 81.84C131.527 81.648 131.671 81.456 131.767 81.264C132.343 81.264 132.535 80.736 132.343 79.68C132.151 78.912 132.487 77.232 133.351 74.64C134.215 72.048 135.319 69.648 136.663 67.44C137.719 65.712 139.255 63.552 141.271 60.96C143.383 58.368 145.255 56.4 146.887 55.056C151.687 50.928 156.007 48.432 159.847 47.568C161.767 47.088 163.639 46.848 165.463 46.848C168.247 46.848 170.407 47.616 171.943 49.152C174.055 50.016 175.591 51.264 176.551 52.896C177.511 54.528 178.135 56.688 178.423 59.376C178.519 59.952 178.567 60.912 178.567 62.256C178.567 69.36 175.879 76.752 170.503 84.432C168.295 87.6 166.087 90.144 163.879 92.064C161.671 93.984 158.983 95.904 155.815 97.824C154.087 98.976 152.263 99.744 150.343 100.128C148.423 100.512 145.831 100.8 142.567 100.992ZM157.255 83.424C159.079 81.792 160.375 80.16 161.143 78.528C162.007 76.8 163.207 73.824 164.743 69.6C165.319 68.736 165.607 67.008 165.607 64.416C165.607 62.112 165.271 60.816 164.599 60.528C164.119 60.144 163.543 59.952 162.871 59.952C162.007 59.952 160.615 60.624 158.695 61.968C155.335 64.848 152.503 67.872 150.199 71.04C147.991 74.112 146.455 77.664 145.591 81.696C145.495 82.08 145.447 82.656 145.447 83.424C145.447 86.688 146.599 88.32 148.903 88.32C151.111 88.32 153.895 86.688 157.255 83.424Z" fill="#554D4D"/>
<path d="M203.091 109.632L203.235 109.2C203.235 108.24 202.419 107.712 200.787 107.616C198.771 106.368 196.611 104.256 194.307 101.28C192.003 98.208 190.563 95.856 189.987 94.224C189.699 93.456 189.555 92.928 189.555 92.64C189.555 92.16 189.747 91.824 190.131 91.632C190.515 91.344 190.995 91.104 191.571 90.912C192.147 90.624 192.579 90.432 192.867 90.336C194.595 89.184 195.891 88.608 196.755 88.608C197.715 88.608 198.531 89.232 199.203 90.48C200.547 92.88 202.707 94.896 205.683 96.528C208.659 98.064 211.971 98.832 215.619 98.832C218.883 98.832 221.811 98.256 224.403 97.104C226.899 95.952 228.147 94.272 228.147 92.064C228.147 90.432 227.427 88.464 225.987 86.16C225.795 85.584 225.459 85.056 224.979 84.576C224.499 84.096 223.923 83.616 223.251 83.136C221.715 81.984 220.035 80.496 218.211 78.672C216.675 78.096 215.091 77.328 213.459 76.368L210.435 74.928C208.035 73.776 205.347 71.952 202.371 69.456C199.395 66.864 197.331 64.464 196.179 62.256C194.067 60.24 193.011 57.168 193.011 53.04C193.011 48.528 194.067 44.304 196.179 40.368C197.331 37.776 200.115 33.792 204.531 28.416C208.947 23.04 212.211 19.68 214.323 18.336L218.067 14.736C218.163 14.352 218.307 14.16 218.499 14.16C218.691 14.064 218.835 14.016 218.931 14.016C219.219 13.824 220.227 13.392 221.955 12.72C223.683 11.952 225.507 10.656 227.427 8.832C233.283 5.95199 238.467 3.936 242.979 2.784C247.587 1.536 251.427 0.911997 254.499 0.911997C258.243 1.10399 261.699 2.44799 264.867 4.944C268.131 7.44 270.003 10.32 270.483 13.584C270.675 14.544 270.771 15.312 270.771 15.888C270.771 19.44 269.331 23.424 266.451 27.84C263.571 32.256 260.499 35.376 257.235 37.2C255.795 37.872 254.403 38.208 253.059 38.208C251.427 38.208 250.083 37.776 249.027 36.912C248.067 36.048 247.635 34.944 247.731 33.6C247.731 32.736 248.019 31.776 248.595 30.72C249.267 29.568 250.707 27.744 252.915 25.248C256.179 20.448 257.811 16.992 257.811 14.88C257.811 13.44 256.947 12.576 255.219 12.288C254.163 12 251.283 12.432 246.579 13.584C241.971 14.64 239.667 15.408 239.667 15.888C239.667 15.984 239.619 16.176 239.523 16.464C239.523 16.656 239.379 16.704 239.091 16.608C238.707 16.512 235.971 18.096 230.883 21.36C225.891 24.624 223.299 26.496 223.107 26.976C223.011 27.456 222.627 27.984 221.955 28.56C221.379 29.04 220.659 29.472 219.795 29.856C218.067 30.912 216.483 32.352 215.043 34.176C213.699 36 211.923 38.88 209.715 42.816C208.563 44.448 207.603 46.224 206.835 48.144C206.163 50.064 205.827 51.792 205.827 53.328C205.827 54.384 205.971 55.296 206.259 56.064C206.643 57.504 207.651 58.848 209.283 60.096C211.011 61.248 214.275 63.264 219.075 66.144C223.971 68.928 228.387 71.904 232.323 75.072C236.259 78.144 238.659 80.592 239.523 82.416C241.059 84.624 241.827 87.504 241.827 91.056C241.827 93.84 241.443 96.48 240.675 98.976C239.811 100.8 238.707 102.48 237.363 104.016C236.019 105.648 234.819 106.416 233.763 106.32C232.803 106.608 231.987 106.944 231.315 107.328C230.643 107.808 230.067 108.144 229.587 108.336C228.435 109.008 225.459 109.68 220.659 110.352C215.955 111.12 212.019 111.456 208.851 111.36L203.091 109.632ZM269.28 102.144C267.744 101.856 266.016 100.656 264.096 98.544C262.176 96.336 260.976 94.464 260.496 92.928C260.496 92.736 260.4 92.544 260.208 92.352C260.016 92.064 259.872 91.872 259.776 91.776C259.392 91.488 259.2 89.904 259.2 87.024C259.2 84.72 259.296 82.32 259.488 79.824C259.776 77.328 260.112 75.312 260.496 73.776L263.088 66.144L265.104 60.384L268.992 52.032L263.232 50.448C262.56 50.352 261.984 50.016 261.504 49.44C261.12 48.864 260.928 48.336 260.928 47.856C260.928 47.088 261.312 45.984 262.08 44.544C262.944 43.104 263.616 42.384 264.096 42.384C264.384 42.48 265.152 42.528 266.4 42.528C269.28 42.528 271.44 42.384 272.88 42.096C273.84 41.712 274.512 40.944 274.896 39.792C275.376 38.736 275.856 37.872 276.336 37.2C276.816 36.432 277.296 35.616 277.776 34.752C278.064 34.176 278.496 33.312 279.072 32.16C279.744 30.912 280.56 29.52 281.52 27.984C281.712 27.696 282.144 27.024 282.816 25.968C283.488 24.816 284.304 23.856 285.264 23.088C285.84 22.608 286.608 22.224 287.568 21.936C288.528 21.552 289.488 21.36 290.448 21.36C292.176 21.36 293.568 21.84 294.624 22.8C295.488 24.144 295.92 25.152 295.92 25.824C295.92 26.592 295.536 27.6 294.768 28.848C294.192 30 293.232 31.536 291.888 33.456C290.736 35.184 289.872 36.576 289.296 37.632C288.336 38.88 287.856 39.84 287.856 40.512C287.856 41.184 288.48 41.52 289.728 41.52C291.072 41.52 293.328 41.232 296.496 40.656C296.976 40.56 297.648 40.512 298.512 40.512C300.816 40.512 302.448 41.184 303.408 42.528C304.368 43.872 304.848 45.552 304.848 47.568C304.848 48.912 304.368 49.728 303.408 50.016C302.544 50.304 300.528 50.448 297.36 50.448C294.288 50.928 291.12 51.168 287.856 51.168C287.28 51.168 286.608 51.216 285.84 51.312C285.168 51.312 284.448 51.408 283.68 51.6C282.912 51.792 282.336 52.08 281.952 52.464C281.664 52.848 281.328 53.472 280.944 54.336C280.656 54.624 279.984 55.728 278.928 57.648C277.584 60.432 276.72 62.112 276.336 62.688C273.84 69.984 271.92 77.52 270.576 85.296C270.48 85.872 270.432 86.592 270.432 87.456C270.432 88.704 270.816 89.616 271.584 90.192C272.448 90.672 274.08 90.912 276.48 90.912C279.168 90.912 281.712 90.576 284.112 89.904C286.992 88.656 289.152 87.6 290.592 86.736C291.456 86.256 292.224 85.824 292.896 85.44C293.664 84.96 294.192 84.624 294.48 84.432C294.864 83.664 295.488 83.76 296.352 84.72C297.312 85.68 298.032 86.784 298.512 88.032C298.512 89.76 298.176 91.344 297.504 92.784C296.832 94.128 295.152 95.568 292.464 97.104C289.392 99.024 286.224 100.416 282.96 101.28C279.696 102.144 276.624 102.576 273.744 102.576C272.112 102.576 270.624 102.432 269.28 102.144ZM340.712 101.712C339.848 100.848 339.128 99.744 338.552 98.4C338.072 96.96 337.448 94.8 336.68 91.92C336.488 91.344 336.392 90.528 336.392 89.472C336.392 88.32 336.392 87.504 336.392 87.024C336.008 87.888 335.528 88.848 334.952 89.904C334.376 90.864 333.8 91.536 333.224 91.92C331.016 94.128 328.808 95.76 326.6 96.816C323.528 98.736 320.888 99.696 318.68 99.696C315.992 99.696 313.688 98.448 311.768 95.952C308.696 93.456 307.16 90.48 307.16 87.024C307.16 86.544 307.256 85.632 307.448 84.288C307.64 80.736 308.12 77.328 308.888 74.064C309.752 70.8 311.336 66.624 313.64 61.536L317.96 52.896L320.264 48.432C320.744 48.24 321.512 48.144 322.568 48.144C324.104 48.144 325.544 48.432 326.888 49.008C328.232 49.584 328.952 50.352 329.048 51.312C329.336 51.696 329.48 52.416 329.48 53.472C329.48 56.544 328.184 60.624 325.592 65.712L324.44 68.448C322.712 72.576 321.464 75.792 320.696 78.096C319.928 80.4 319.544 82.32 319.544 83.856C319.544 85.392 320.12 86.4 321.272 86.88C321.752 87.168 322.328 87.312 323 87.312C324.92 87.312 327.224 85.824 329.912 82.848C332.696 79.872 335.528 74.88 338.408 67.872C339.752 64.608 340.568 61.248 340.856 57.792C340.664 56.736 340.952 55.584 341.72 54.336C342.488 53.088 343.496 52.08 344.744 51.312C345.128 50.736 345.656 50.304 346.328 50.016C347 49.632 347.432 49.632 347.624 50.016L349.928 49.872C350.216 49.776 350.648 50.208 351.224 51.168C351.896 52.128 352.376 52.704 352.664 52.896C353.624 53.664 354.104 55.2 354.104 57.504C354.104 60.672 352.952 65.04 350.648 70.608C348.824 74.448 347.576 77.424 346.904 79.536C346.328 81.552 345.992 83.52 345.896 85.44C345.896 87.456 346.04 89.04 346.328 90.192C346.712 91.248 347.576 92.352 348.92 93.504C350.456 94.56 351.08 97.056 350.792 100.992C350.6 101.664 350.072 102.192 349.208 102.576C348.344 102.96 347.288 103.152 346.04 103.152C343.928 103.152 342.152 102.672 340.712 101.712ZM364.057 102.576C361.849 102.288 359.929 100.8 358.297 98.112C356.761 95.424 355.993 92.448 355.993 89.184L356.137 87.456C356.521 84.096 357.241 80.976 358.297 78.096C359.353 75.216 360.985 72.096 363.193 68.736C364.729 65.952 367.561 62.928 371.689 59.664C375.817 56.304 379.465 54.096 382.633 53.04C384.937 52.176 387.049 51.744 388.969 51.744C390.697 51.744 392.425 52.032 394.153 52.608C395.497 53.28 396.553 53.616 397.321 53.616C398.281 53.616 398.905 53.136 399.193 52.176C399.481 51.696 399.865 50.784 400.345 49.44C400.921 48 401.449 46.848 401.929 45.984L405.097 36.624L408.841 27.696L413.017 17.904C415.513 13.008 417.865 10.56 420.073 10.56C420.937 10.56 421.657 10.8 422.233 11.28C423.577 12.24 424.585 13.2 425.257 14.16C426.025 15.12 426.409 16.368 426.409 17.904C426.409 19.152 425.977 20.88 425.113 23.088C423.481 25.872 421.849 28.992 420.217 32.448L418.057 37.344C415.465 43.488 413.929 47.184 413.449 48.432L412.297 52.32C411.433 55.008 410.809 57.312 410.425 59.232C409.657 63.36 408.985 65.424 408.409 65.424C406.681 67.248 405.049 72.912 403.513 82.416C403.129 84.72 402.937 89.136 402.937 95.664C402.937 97.968 402.841 99.552 402.649 100.416C402.457 101.28 402.073 101.76 401.497 101.856C399.961 102.048 398.905 102.144 398.329 102.144C396.121 102.144 394.441 101.52 393.289 100.272C392.041 99.12 391.225 98.16 390.841 97.392C390.457 96.528 390.313 95.52 390.409 94.368C390.505 93.216 390.505 92.016 390.409 90.768C390.409 89.424 390.457 88.416 390.553 87.744C390.265 87.36 389.305 87.984 387.673 89.616C386.809 90.48 385.705 91.44 384.361 92.496C381.001 96.24 377.977 98.928 375.289 100.56C372.697 102.096 369.961 102.864 367.081 102.864C366.409 102.864 365.401 102.768 364.057 102.576ZM368.809 90.48C370.345 90.48 371.833 89.952 373.273 88.896C374.809 87.84 376.345 86.64 377.881 85.296C379.417 83.856 380.521 82.8 381.193 82.128C383.881 79.536 386.761 76.176 389.833 72.048C393.001 67.92 394.585 65.472 394.585 64.704C394.585 64.032 393.817 63.408 392.281 62.832C390.841 62.256 389.641 62.112 388.681 62.4C386.569 62.88 384.697 63.792 383.065 65.136C381.529 66.384 379.513 68.544 377.017 71.616C374.233 74.976 371.977 78.336 370.249 81.696C368.617 84.96 367.801 87.408 367.801 89.04C367.801 90 368.137 90.48 368.809 90.48ZM426.027 136.272C425.355 136.464 424.491 136.08 423.435 135.12C422.475 134.256 421.995 133.008 421.995 131.376L422.139 130.08C421.947 129.312 421.851 128.64 421.851 128.064C421.851 125.76 423.195 121.872 425.883 116.4C426.555 115.344 427.515 113.328 428.763 110.352C429.627 108.144 430.491 106.224 431.355 104.592C431.643 104.112 432.939 101.856 435.243 97.824C437.643 93.696 439.899 88.896 442.011 83.424C441.243 84.192 439.275 86.448 436.107 90.192C433.707 93.072 431.835 95.088 430.491 96.24C429.243 97.392 427.899 97.92 426.459 97.824C425.115 97.536 423.579 96.72 421.851 95.376C420.219 93.936 419.163 92.448 418.683 90.912C418.395 89.28 418.251 87.504 418.251 85.584C418.251 81.264 418.875 75.408 420.123 68.016C420.891 64.464 421.275 61.968 421.275 60.528C421.275 58.896 421.035 57.648 420.555 56.784C420.075 55.824 419.403 54.96 418.539 54.192C417.867 53.616 417.531 52.992 417.531 52.32C417.531 51.456 417.963 50.592 418.827 49.728C419.691 48.768 420.699 48 421.851 47.424C423.579 47.04 424.731 46.848 425.307 46.848C426.939 46.848 428.619 47.76 430.347 49.584C430.539 49.968 430.971 50.736 431.643 51.888C432.315 52.944 432.843 54.144 433.227 55.488C433.611 56.736 433.803 58.176 433.803 59.808C433.803 60.288 433.563 63.744 433.083 70.176L431.499 75.936C430.923 77.952 430.443 79.68 430.059 81.12C429.771 82.56 429.771 83.28 430.059 83.28C432.843 80.976 435.195 78.72 437.115 76.512C439.131 74.304 441.963 70.704 445.611 65.712C445.995 65.04 446.715 63.744 447.771 61.824C448.923 59.808 449.787 57.936 450.363 56.208C451.035 54.864 451.803 53.52 452.667 52.176C453.627 50.832 454.299 50.112 454.683 50.016C455.259 49.824 456.315 50.016 457.851 50.592C459.483 51.168 460.347 51.6 460.443 51.888C460.443 51.984 461.307 52.128 463.035 52.32C464.859 52.416 465.771 52.608 465.771 52.896C465.771 53.088 465.051 54.816 463.611 58.08C461.595 62.784 460.635 65.232 460.731 65.424C461.019 65.808 460.491 67.44 459.147 70.32C457.899 73.2 457.179 74.88 456.987 75.36C454.587 83.04 451.995 89.28 449.211 94.08C448.251 95.808 445.947 100.848 442.299 109.2L441.147 111.936C440.187 114.048 439.131 116.448 437.979 119.136C436.827 121.92 435.819 124.368 434.955 126.48C434.379 127.632 433.947 128.544 433.659 129.216C433.467 129.984 433.275 130.56 433.083 130.944C432.891 132.768 432.459 134.112 431.787 134.976C431.307 135.456 430.635 135.792 429.771 135.984C428.907 136.176 428.091 136.272 427.323 136.272C426.651 136.272 426.219 136.272 426.027 136.272Z" fill="#348BFE"/>
</svg>
