<svg width="400" height="289" viewBox="0 0 400 289" fill="none" xmlns="http://www.w3.org/2000/svg">
<path d="M0.608 8.26399V0.199993H33.44L67.424 64.712L102.128 0.199993H133.088V8.26399H119.984V92.936H133.088V101H91.328V92.936H104.432V28.712C104.528 28.232 104.576 27.128 104.576 25.4C104.672 23.576 104.768 21.656 104.864 19.64C104.96 17.24 105.056 14.648 105.152 11.864H103.856L97.664 27.272L68.144 79.4H59.36L30.56 27.272L24.224 10.424H22.784V19.352C22.784 21.56 22.784 23.672 22.784 25.688C22.88 27.608 22.928 28.616 22.928 28.712V92.936H35.168V101H0.608V92.936H13.712V8.26399H0.608ZM209.606 91.064C207.11 94.616 203.558 97.448 198.95 99.56C194.438 101.576 189.158 102.584 183.11 102.584C176.774 102.584 171.158 101.672 166.262 99.848C161.462 97.928 157.43 95.288 154.166 91.928C150.902 88.472 148.406 84.344 146.678 79.544C145.046 74.648 144.23 69.224 144.23 63.272C144.23 50.408 147.446 40.664 153.878 34.04C160.31 27.32 169.334 23.96 180.95 23.96C184.79 23.96 188.534 24.44 192.182 25.4C195.926 26.36 199.238 27.944 202.118 30.152C204.998 32.36 207.302 35.288 209.03 38.936C210.854 42.584 211.766 47.096 211.766 52.472C211.766 54.104 211.67 55.832 211.478 57.656C211.286 59.48 210.998 61.4 210.614 63.416H160.502C160.502 67.64 161.03 71.48 162.086 74.936C163.238 78.392 164.918 81.368 167.126 83.864C169.43 86.36 172.262 88.328 175.622 89.768C178.982 91.112 182.966 91.784 187.574 91.784C191.318 91.784 194.774 91.16 197.942 89.912C201.206 88.664 203.798 87.224 205.718 85.592L209.606 91.064ZM180.374 30.728C177.398 30.728 174.758 31.16 172.454 32.024C170.246 32.888 168.326 34.328 166.694 36.344C165.062 38.36 163.766 41.048 162.806 44.408C161.846 47.672 161.222 51.752 160.934 56.648H195.638C195.734 55.784 195.782 54.92 195.782 54.056C195.878 53.096 195.926 52.232 195.926 51.464C195.926 45.128 194.63 40.088 192.038 36.344C189.542 32.6 185.654 30.728 180.374 30.728ZM303.121 25.4V34.616H286.273C287.617 35.96 288.865 37.832 290.017 40.232C291.169 42.632 291.745 45.512 291.745 48.872C291.745 55.976 288.961 61.688 283.393 66.008C277.825 70.328 269.809 72.488 259.345 72.488C257.425 72.488 255.793 72.488 254.449 72.488C253.105 72.392 251.665 72.152 250.129 71.768C249.649 72.728 249.025 73.784 248.257 74.936C247.585 75.992 247.249 77.144 247.249 78.392C247.249 80.408 248.497 81.944 250.993 83C253.489 83.96 256.609 84.872 260.353 85.736C264.097 86.504 268.177 87.32 272.593 88.184C277.009 88.952 281.089 90.152 284.833 91.784C288.673 93.32 291.841 95.384 294.337 97.976C296.833 100.568 298.081 103.976 298.081 108.2C298.081 111.848 297.121 115.016 295.201 117.704C293.377 120.488 290.737 122.744 287.281 124.472C283.921 126.296 279.889 127.64 275.185 128.504C270.481 129.368 265.345 129.8 259.777 129.8C247.777 129.8 238.801 128.216 232.849 125.048C226.897 121.88 223.921 117.512 223.921 111.944C223.921 106.568 225.745 102.44 229.393 99.56C233.041 96.68 238.177 94.28 244.801 92.36C242.305 91.304 240.289 90.152 238.753 88.904C237.217 87.656 236.449 85.784 236.449 83.288C236.449 82.136 236.737 80.984 237.312 79.832C237.889 78.584 238.657 77.432 239.617 76.376C240.577 75.224 241.633 74.216 242.785 73.352C243.937 72.392 245.041 71.624 246.097 71.048C239.953 69.416 235.201 66.632 231.841 62.696C228.577 58.76 226.945 54.056 226.945 48.584C226.945 41.576 229.681 35.96 235.153 31.736C240.625 27.512 248.689 25.4 259.345 25.4H303.121ZM282.961 111.656C282.961 108.488 281.809 105.944 279.505 104.024C277.297 102.2 274.465 100.712 271.009 99.56C267.649 98.312 264.001 97.304 260.065 96.536C256.129 95.768 252.433 94.856 248.977 93.8C244.945 96.2 242.257 98.6 240.913 101C239.665 103.496 239.041 106.136 239.041 108.92C239.041 112.952 241.057 116.312 245.089 119C249.121 121.688 254.977 123.032 262.657 123.032C266.593 123.032 269.857 122.696 272.449 122.024C275.041 121.448 277.105 120.632 278.641 119.576C280.273 118.52 281.377 117.32 281.953 115.976C282.625 114.632 282.961 113.192 282.961 111.656ZM242.065 48.584C242.065 51.08 242.353 53.384 242.929 55.496C243.505 57.608 244.417 59.432 245.665 60.968C247.009 62.408 248.785 63.56 250.993 64.424C253.201 65.288 255.985 65.72 259.345 65.72C265.489 65.72 269.905 64.184 272.593 61.112C275.281 57.944 276.625 53.768 276.625 48.584C276.625 46.568 276.529 44.888 276.337 43.544C276.241 42.2 276.049 41 275.761 39.944C275.569 38.888 275.329 37.976 275.041 37.208C274.753 36.344 274.465 35.48 274.177 34.616C271.969 33.656 269.617 33.032 267.121 32.744C264.625 32.36 262.033 32.168 259.345 32.168C252.817 32.168 248.305 33.512 245.809 36.2C243.313 38.888 242.065 43.016 242.065 48.584ZM371.347 80.984C371.347 83.192 371.395 85.448 371.491 87.752C371.587 89.96 371.731 91.976 371.923 93.8H381.427V101H358.819L357.379 87.32H356.659C356.179 89.24 355.267 91.112 353.923 92.936C352.675 94.76 351.043 96.392 349.027 97.832C347.107 99.272 344.803 100.424 342.115 101.288C339.427 102.152 336.451 102.584 333.187 102.584C329.923 102.584 326.899 102.104 324.115 101.144C321.427 100.184 319.075 98.84 317.059 97.112C315.043 95.384 313.459 93.32 312.307 90.92C311.251 88.424 310.723 85.64 310.723 82.568C310.723 77.864 311.683 73.976 313.603 70.904C315.619 67.832 318.547 65.432 322.387 63.704C326.227 61.88 331.027 60.584 336.787 59.816C342.547 59.048 349.267 58.616 356.947 58.52C357.139 56.984 357.235 55.544 357.235 54.2C357.235 52.76 357.235 51.368 357.235 50.024C357.235 44.072 356.227 39.56 354.211 36.488C352.195 33.32 348.595 31.736 343.411 31.736C341.491 31.736 339.427 31.832 337.219 32.024C335.011 32.216 332.995 32.792 331.171 33.752V47H318.211V31.016C321.667 29.192 325.747 27.56 330.451 26.12C335.155 24.68 340.675 23.96 347.011 23.96C352.483 23.96 356.851 24.68 360.115 26.12C363.475 27.464 366.019 29.288 367.747 31.592C369.571 33.8 370.723 36.344 371.203 39.224C371.779 42.008 372.067 44.792 372.067 47.576C372.067 53.624 371.923 59.432 371.635 65C371.443 70.472 371.347 75.8 371.347 80.984ZM339.811 92.936C342.115 92.936 344.179 92.6 346.003 91.928C347.827 91.16 349.411 90.248 350.755 89.192C352.195 88.04 353.395 86.792 354.355 85.448C355.411 84.104 356.275 82.808 356.947 81.56V64.424C350.707 64.424 345.619 64.856 341.683 65.72C337.843 66.488 334.819 67.544 332.611 68.888C330.403 70.232 328.867 71.864 328.003 73.784C327.235 75.608 326.851 77.576 326.851 79.688C326.851 84.008 328.003 87.32 330.307 89.624C332.611 91.832 335.779 92.936 339.811 92.936ZM14.144 272.888L16.736 276.344C18.464 277.592 20.816 278.648 23.792 279.512C26.864 280.28 30.224 280.664 33.872 280.664C37.328 280.664 40.496 280.328 43.376 279.656C46.352 278.888 48.944 277.784 51.152 276.344C53.36 274.904 55.088 273.08 56.336 270.872C57.584 268.664 58.208 266.024 58.208 262.952C58.208 259.016 56.864 255.752 54.176 253.16C51.584 250.568 48.32 248.264 44.384 246.248C40.448 244.232 36.176 242.264 31.568 240.344C26.96 238.424 22.688 236.168 18.752 233.576C14.816 230.984 11.504 227.864 8.816 224.216C6.224 220.568 4.928 215.96 4.928 210.392C4.928 202.232 8 195.896 14.144 191.384C20.384 186.776 28.784 184.472 39.344 184.472C45.968 184.472 51.68 184.904 56.48 185.768C61.28 186.632 65.36 187.784 68.72 189.224V213.992H59.504V198.44L57.2 194.84C55.376 194.072 52.736 193.496 49.28 193.112C45.824 192.728 42.416 192.536 39.056 192.536C33.296 192.536 28.784 193.88 25.52 196.568C22.256 199.16 20.624 202.856 20.624 207.656C20.624 211.592 21.92 214.904 24.512 217.592C27.2 220.184 30.512 222.536 34.448 224.648C38.384 226.76 42.656 228.824 47.264 230.84C51.872 232.76 56.144 235.016 60.08 237.608C64.016 240.104 67.28 243.128 69.872 246.68C72.56 250.232 73.904 254.648 73.904 259.928C73.904 269.24 70.304 276.392 63.104 281.384C55.904 286.28 46.064 288.728 33.584 288.728C26.768 288.728 20.864 288.008 15.872 286.568C10.88 285.128 7.232 283.592 4.928 281.96V255.752H14.144V272.888ZM174.229 287H138.949V279.8H148.453V244.376C148.453 236.408 147.397 230.312 145.285 226.088C143.173 221.768 139.429 219.608 134.053 219.608C131.173 219.608 128.485 220.088 125.989 221.048C123.493 222.008 121.285 223.256 119.365 224.792C117.445 226.328 115.765 228.056 114.325 229.976C112.981 231.8 111.973 233.624 111.301 235.448V279.8H120.805V287H85.5253V279.8H96.1813V186.2H83.9413V179H111.301V226.664H111.445C113.653 221.96 117.109 218.024 121.813 214.856C126.613 211.592 132.325 209.96 138.949 209.96C142.693 209.96 146.101 210.44 149.173 211.4C152.245 212.264 154.837 213.896 156.949 216.296C159.061 218.696 160.693 221.912 161.845 225.944C162.997 229.976 163.573 235.112 163.573 241.352V279.8H174.229V287ZM183.464 249.272C183.464 242.936 184.376 237.32 186.2 232.424C188.024 227.528 190.568 223.448 193.832 220.184C197.192 216.824 201.224 214.28 205.928 212.552C210.728 210.824 216.008 209.96 221.768 209.96C228.488 209.96 234.248 210.92 239.048 212.84C243.944 214.664 247.928 217.304 251 220.76C254.072 224.12 256.328 228.248 257.768 233.144C259.304 237.944 260.072 243.32 260.072 249.272C260.072 255.608 259.16 261.224 257.336 266.12C255.608 270.92 253.064 275 249.704 278.36C246.44 281.624 242.408 284.12 237.608 285.848C232.904 287.576 227.624 288.44 221.768 288.44C215.24 288.44 209.576 287.528 204.776 285.704C199.976 283.784 195.992 281.144 192.824 277.784C189.656 274.328 187.304 270.2 185.768 265.4C184.232 260.6 183.464 255.224 183.464 249.272ZM199.736 249.272C199.736 253.88 200.168 258.152 201.032 262.088C201.896 266.024 203.288 269.432 205.208 272.312C207.224 275.192 209.768 277.496 212.84 279.224C216.008 280.856 219.848 281.672 224.36 281.672C230.024 281.672 234.68 279.08 238.328 273.896C241.976 268.712 243.8 260.504 243.8 249.272C243.8 244.664 243.368 240.392 242.504 236.456C241.64 232.424 240.248 228.968 238.328 226.088C236.504 223.112 234.104 220.808 231.128 219.176C228.248 217.544 224.696 216.728 220.472 216.728C214.136 216.728 209.096 219.32 205.352 224.504C201.608 229.688 199.736 237.944 199.736 249.272ZM273.043 249.272C273.043 242.936 273.955 237.32 275.779 232.424C277.603 227.528 280.147 223.448 283.411 220.184C286.771 216.824 290.803 214.28 295.507 212.552C300.307 210.824 305.587 209.96 311.347 209.96C318.067 209.96 323.827 210.92 328.627 212.84C333.523 214.664 337.507 217.304 340.578 220.76C343.651 224.12 345.907 228.248 347.347 233.144C348.883 237.944 349.651 243.32 349.651 249.272C349.651 255.608 348.739 261.224 346.915 266.12C345.187 270.92 342.643 275 339.282 278.36C336.019 281.624 331.987 284.12 327.187 285.848C322.483 287.576 317.203 288.44 311.347 288.44C304.819 288.44 299.155 287.528 294.355 285.704C289.555 283.784 285.571 281.144 282.403 277.784C279.235 274.328 276.883 270.2 275.347 265.4C273.811 260.6 273.043 255.224 273.043 249.272ZM289.315 249.272C289.315 253.88 289.747 258.152 290.611 262.088C291.475 266.024 292.867 269.432 294.787 272.312C296.803 275.192 299.347 277.496 302.419 279.224C305.587 280.856 309.427 281.672 313.939 281.672C319.603 281.672 324.259 279.08 327.907 273.896C331.555 268.712 333.379 260.504 333.379 249.272C333.379 244.664 332.947 240.392 332.083 236.456C331.219 232.424 329.827 228.968 327.907 226.088C326.083 223.112 323.683 220.808 320.707 219.176C317.827 217.544 314.275 216.728 310.051 216.728C303.715 216.728 298.675 219.32 294.931 224.504C291.187 229.688 289.315 237.944 289.315 249.272ZM399.053 287H362.621V279.8H373.277V186.2H361.037V179H388.397V279.8H399.053V287Z" fill="url(#paint0_linear_40_51)"/>
<defs>
<linearGradient id="paint0_linear_40_51" x1="235" y1="-45" x2="235" y2="326" gradientUnits="userSpaceOnUse">
<stop stop-color="#FF0202"/>
<stop offset="0.442708" stop-color="#719A57"/>
<stop offset="1" stop-color="#3502FF"/>
</linearGradient>
</defs>
</svg>
