<svg width="355" height="342" viewBox="0 0 355 342" fill="none" xmlns="http://www.w3.org/2000/svg">
<path d="M49.6348 177.324L49.7273 176.878C49.6152 175.924 48.7431 175.495 47.1111 175.59C44.9632 174.586 42.5713 172.741 39.9355 170.055C37.2885 167.273 35.5837 165.105 34.8211 163.551C34.4454 162.822 34.2407 162.315 34.2071 162.029C34.151 161.552 34.3025 161.196 34.6614 160.96C35.0092 160.629 35.4578 160.335 36.0075 160.077C36.5459 159.724 36.9525 159.483 37.2273 159.354C38.809 158.008 40.0289 157.284 40.887 157.183C41.8404 157.071 42.7237 157.596 43.5368 158.757C45.1519 160.983 47.5325 162.733 50.6788 164.007C53.8138 165.185 57.1928 165.561 60.8158 165.135C64.0575 164.753 66.8982 163.839 69.3379 162.393C71.6823 160.957 72.7256 159.143 72.4678 156.95C72.2772 155.329 71.3323 153.459 69.6331 151.338C69.3751 150.789 68.9798 150.304 68.447 149.883C67.9142 149.462 67.2861 149.053 66.5626 148.655C64.9026 147.69 63.0604 146.408 61.0358 144.81C59.4431 144.417 57.7802 143.839 56.0473 143.076L52.8758 141.999C50.3577 141.136 47.4751 139.638 44.228 137.507C40.9696 135.28 38.6395 133.137 37.2375 131.079C34.9045 129.323 33.497 126.396 33.015 122.296C32.4881 117.815 33.0436 113.496 34.6815 109.341C35.5229 106.632 37.8226 102.35 41.5806 96.4952C45.3386 90.6402 48.1878 86.9221 50.1284 85.3406L53.4264 81.328C53.4769 80.9355 53.5975 80.7279 53.7882 80.7055C53.9677 80.5878 54.1051 80.5233 54.2004 80.5121C54.464 80.2877 55.4147 79.741 57.0524 78.8718C58.6789 77.9073 60.3391 76.4071 62.0329 74.3714C67.5125 70.8272 72.4256 68.2196 76.7722 66.5486C81.203 64.771 84.9438 63.7029 87.9948 63.3441C91.7356 63.0976 95.3249 64.0288 98.7627 66.1378C102.296 68.2355 104.491 70.8772 105.349 74.0628C105.652 74.9938 105.837 75.7454 105.904 76.3174C106.319 79.8451 105.354 83.97 103.01 88.6921C100.665 93.4142 97.9784 96.8716 94.9498 99.0643C93.5981 99.8999 92.2548 100.396 90.92 100.553C89.2992 100.744 87.914 100.472 86.7643 99.7368C85.71 98.9908 85.152 97.9448 85.0904 96.5988C84.9895 95.7407 85.1634 94.7537 85.6121 93.6376C86.145 92.415 87.3622 90.4354 89.2636 87.6986C91.9447 82.5503 93.1619 78.9273 92.9153 76.8298C92.7471 75.3996 91.7882 74.6424 90.0383 74.5582C88.9559 74.3955 86.1461 75.1609 81.6088 76.8543C77.1557 78.4412 74.9571 79.473 75.0132 79.9497C75.0244 80.0451 74.9991 80.2414 74.9374 80.5386C74.9598 80.7293 74.8224 80.7938 74.5252 80.7321C74.1326 80.6816 71.6003 82.5742 66.9283 86.4101C62.3516 90.2347 59.9959 92.3966 59.8613 92.8957C59.822 93.3836 59.5023 93.9529 58.9022 94.6034C58.3862 95.1474 57.7215 95.6605 56.9083 96.1428C55.3154 97.3934 53.9104 99.0085 52.6933 100.988C51.5715 102.957 50.144 106.024 48.4107 110.191C47.4572 111.947 46.7112 113.823 46.1726 115.819C45.7294 117.804 45.5975 119.56 45.7769 121.085C45.9002 122.134 46.1497 123.023 46.5255 123.752C47.075 125.137 48.233 126.355 49.9996 127.403C51.8503 128.346 55.3274 129.967 60.4309 132.267C65.6185 134.46 70.3518 136.9 74.6309 139.586C78.8987 142.178 81.5681 144.329 82.6392 146.039C84.4226 148.053 85.5216 150.823 85.9364 154.351C86.2616 157.116 86.1885 159.783 85.7172 162.352C85.0721 164.264 84.1719 166.061 83.0164 167.744C81.8722 169.522 80.7701 170.424 79.7101 170.452C78.7903 170.851 78.0192 171.28 77.3966 171.739C76.7852 172.295 76.2524 172.696 75.7981 172.942C74.7325 173.744 71.8553 174.759 67.1666 175.987C62.5845 177.299 58.7147 178.093 55.5571 178.367L49.6348 177.324ZM109.122 157.135C107.372 157.05 105.686 156.282 104.066 154.829C102.445 153.377 101.511 151.602 101.265 149.504C100.996 147.216 101.736 141.184 103.487 131.409C103.672 128.874 104.345 125.556 105.506 121.457C105.888 119.769 106.109 118.776 106.171 118.479C107.215 112.556 108.727 105.274 110.707 96.6316L111.59 93.0479C113.862 83.5979 115.214 77.8326 115.646 75.7519L117.195 69.1902C117.105 68.4274 117.545 67.6507 118.516 66.86C119.57 65.9627 120.479 65.4692 121.241 65.3795C122.767 65.2002 124.362 66.0275 126.028 67.8615C127.694 69.6956 128.703 71.7035 129.056 73.8851C129.191 75.0292 129.076 76.1061 128.711 77.1155C127.079 82.1405 125.23 89.8491 123.166 100.241C122.229 104.605 121.269 108.777 120.288 112.759C119.295 116.646 118.465 119.45 117.797 121.171L116.594 124.503L115.483 132.318C115.517 132.604 115.497 132.848 115.424 133.05C115.351 133.252 115.32 133.4 115.331 133.496C115.365 133.782 115.43 133.919 115.525 133.908L117.67 131.191C120.11 128.101 123.069 124.901 126.546 121.593C129.435 119.03 130.91 117.6 130.971 117.303C131.033 117.005 131.364 116.531 131.964 115.881L133.26 114.569C136.053 112.017 139.213 110.534 142.741 110.119C143.79 109.996 145.091 110.374 146.644 111.255C148.198 112.135 149.563 113.473 150.741 115.268C152.003 116.956 152.757 118.849 153.004 120.947L153.138 122.091L153.256 123.092C153.536 125.475 153.429 128.678 152.936 132.699C152.526 136.614 152.307 138.862 152.279 139.446C152.756 139.39 153.46 139.21 154.391 138.907C155.821 138.739 156.839 138.765 157.444 138.983C158.145 139.191 158.762 139.505 159.295 139.926C159.828 140.346 160.291 140.582 160.683 140.632C160.896 140.801 161.025 141.076 161.07 141.457C161.328 143.65 160.36 145.697 158.167 147.598C155.974 149.499 153.793 150.674 151.622 151.122C148.953 151.436 146.69 150.687 144.833 148.876C142.977 147.064 141.881 144.728 141.545 141.868C141.41 140.724 141.323 139.574 141.284 138.419C141.245 137.263 141.222 136.251 141.217 135.382C141.279 133.441 141.242 131.899 141.108 130.755C140.962 129.515 140.724 128.722 140.393 128.374C140.146 127.92 139.737 127.726 139.165 127.794C137.258 128.018 134.128 130.174 129.776 134.262C125.508 138.244 121.267 143.286 117.055 149.387C114.531 154.227 111.886 156.81 109.122 157.135ZM181.53 153.115C180.386 153.25 179.458 153.166 178.746 152.863C178.033 152.56 176.996 151.957 175.633 151.054C173.491 149.276 171.772 147.4 170.476 145.426C169.17 143.356 168.564 141.494 168.66 139.84C168.867 139.138 168.884 138.46 168.71 137.804C168.632 137.136 168.581 136.707 168.559 136.517C168.133 136.18 167.914 135.964 167.903 135.869C167.88 135.678 167.959 135.524 168.138 135.406C168.307 135.193 168.427 134.985 168.5 134.784C169.072 134.716 169.201 134.169 168.887 133.143C168.607 132.403 168.744 130.695 169.3 128.02C169.855 125.345 170.671 122.832 171.748 120.482C172.595 118.643 173.869 116.318 175.568 113.509C177.363 110.688 178.992 108.515 180.456 106.989C184.741 102.329 188.74 99.3455 192.453 98.039C194.304 97.338 196.135 96.8811 197.947 96.668C200.711 96.3429 202.946 96.8534 204.651 98.1996C206.85 98.811 208.521 99.8711 209.665 101.38C210.809 102.889 211.681 104.961 212.281 107.597C212.443 108.158 212.603 109.106 212.76 110.44C213.59 117.496 211.783 125.151 207.341 133.406C205.518 136.811 203.622 139.595 201.654 141.76C199.685 143.924 197.24 146.145 194.317 148.422C192.736 149.768 191.014 150.744 189.152 151.349C187.29 151.955 184.749 152.544 181.53 153.115ZM194.066 133.952C195.687 132.118 196.783 130.346 197.356 128.636C198.012 126.819 198.856 123.723 199.888 119.348C200.36 118.423 200.444 116.673 200.141 114.099C199.872 111.811 199.387 110.563 198.686 110.355C198.164 110.03 197.57 109.907 196.903 109.985C196.044 110.086 194.74 110.916 192.991 112.475C189.99 115.728 187.53 119.062 185.612 122.477C183.778 125.786 182.667 129.493 182.28 133.598C182.23 133.991 182.249 134.569 182.339 135.331C182.72 138.573 184.055 140.059 186.343 139.79C188.536 139.532 191.11 137.586 194.066 133.952ZM237.19 146.426C236.724 146.577 236.11 146.698 235.347 146.787C234.108 146.933 233.084 146.86 232.277 146.568C231.458 146.181 230.462 145.525 229.29 144.6C226.974 143.809 224.86 142.269 222.947 139.981C221.035 137.692 220.09 135.822 220.113 134.369C220.051 129.737 220.756 124.628 222.225 119.042C223.684 113.361 225.829 108.179 228.662 103.496C231.579 98.7065 234.843 95.2295 238.455 93.0649C240.092 92.1957 241.626 91.677 243.057 91.5088C246.012 91.1613 248.079 91.8849 249.256 93.6797C250.081 94.936 250.532 95.8979 250.611 96.5653C250.745 97.7094 250.168 98.5506 248.878 99.0889C248.592 99.1226 248.275 99.3048 247.927 99.6357C247.579 99.9666 247.422 100.275 247.456 100.561C247.562 100.645 247.997 100.642 248.76 100.553C250.381 100.362 252.355 99.8883 254.682 99.1313C257.01 98.3744 258.474 97.6706 259.074 97.0201C259.612 96.6668 260.072 96.4677 260.453 96.4229L262.489 96.4735C264.166 96.7596 265.044 97.2364 265.122 97.9038C265.178 98.3805 265.394 98.9834 265.77 99.7125C266.241 100.43 266.62 100.773 266.906 100.739C267.382 100.683 267.66 100.989 267.738 101.656C267.806 102.228 267.562 103.03 267.006 104.062C266.535 104.987 265.778 105.946 264.735 106.939C264.292 107.281 263.627 107.794 262.741 108.478C261.95 109.151 261.482 109.69 261.336 110.093C261.285 110.486 261.395 111.005 261.664 111.65C262.135 112.368 262.438 113.299 262.572 114.443C262.953 117.684 261.829 121.683 259.198 126.439C256.556 131.099 253.143 135.367 248.959 139.242C244.87 143.106 240.947 145.501 237.19 146.426ZM236.206 134.362C236.778 134.295 238.141 133.555 240.295 132.141C241.388 130.756 242.3 129.876 243.029 129.5C243.315 129.466 243.525 129.2 243.66 128.701C243.879 128.095 244.212 127.234 244.661 126.118C245.194 124.896 246.069 123.295 247.286 121.315C248.61 119.419 249.496 117.913 249.945 116.797C250.489 115.67 250.699 114.582 250.576 113.533C250.531 113.152 250.357 112.496 250.055 111.565C249.926 111.29 249.564 111.091 248.969 110.967C248.459 110.738 247.954 110.555 247.455 110.421C246.978 110.477 246.519 110.676 246.075 111.018C245.621 111.265 245.299 111.399 245.108 111.422C244.631 111.478 244.079 111.301 243.451 110.891L240.826 108.3L238.681 111.017C236.746 113.468 235.234 116.642 234.146 120.54C233.153 124.427 232.693 127.912 232.766 130.997C232.827 132.343 233.13 133.274 233.674 133.79C234.302 134.199 235.146 134.39 236.206 134.362ZM278.867 139.205C277.549 138.684 276.304 137.96 275.132 137.035C274.044 136.003 273.444 135.01 273.332 134.056C273.175 132.722 273.117 130.989 273.156 128.857C273.291 126.715 273.495 124.758 273.77 122.985C273.776 120.568 273.838 118.628 273.956 117.164C274.158 115.594 274.604 114.043 275.294 112.512C275.507 111.037 275.922 108.813 276.539 105.841C277.852 98.9202 278.677 93.6035 279.013 89.8907C279.53 87.7035 279.978 85.7658 280.36 84.0777C280.741 82.3896 281.092 80.8502 281.412 79.4593C281.288 80.0538 282.099 76.672 283.844 69.3139C284.337 66.936 284.654 65.1105 284.795 63.8374C285.339 59.4236 286.149 56.0418 287.226 53.692C287.782 52.6601 288.163 51.7936 288.371 51.0926C288.674 50.3803 288.946 49.8167 289.187 49.4017C289.237 49.0091 289.675 48.6193 290.499 48.2324C291.419 47.8343 292.356 47.5791 293.309 47.467C294.358 47.3437 295.095 47.4503 295.522 47.7869C295.976 47.5401 296.882 48.2552 298.239 49.9322C299.68 51.5027 300.398 52.6749 300.392 53.4488C300.538 54.6883 300.339 55.8716 299.795 56.9989C299.458 57.4251 299.113 58.1906 298.76 59.2955C298.395 60.3049 298.061 61.1658 297.758 61.878C297.646 62.5679 297.447 63.7512 297.161 65.4281C296.959 66.9985 296.729 68.3304 296.471 69.424C296.129 70.6242 295.781 71.7767 295.427 72.8815C295.158 73.8798 294.925 74.7771 294.729 75.5735C294.493 76.8578 294.045 78.7955 293.383 81.3865C292.429 84.7851 291.82 87.4182 291.557 89.2858C291.433 89.8803 291.24 91.1113 290.976 92.9789C290.202 97.903 289.324 101.534 288.342 103.873C287.725 105.202 287.349 106.938 287.215 109.08C287.175 111.212 287.136 112.521 287.097 113.009C286.171 117.468 285.753 120.078 285.843 120.841C285.753 121.722 285.615 123.429 285.43 125.964C285.217 129.082 284.902 131.343 284.487 132.745C284.465 134.197 284.055 135.647 283.259 137.094C282.558 138.53 281.635 139.315 280.491 139.449C280.014 139.505 279.473 139.424 278.867 139.205Z" fill="#AB4949"/>
<path d="M165.937 273.017C163.572 271.287 161.836 269.51 160.73 267.688C159.616 265.962 159.121 264.333 159.244 262.802C159.405 260.792 160.54 259.246 162.649 258.163C163.047 258.002 163.581 257.949 164.251 258.002C165.208 258.079 166.197 258.351 167.219 258.818C168.345 259.197 169.171 259.697 169.699 260.317C172.003 262.813 174.878 264.199 178.323 264.475C179.854 264.597 182.082 264.439 185.006 263.999C188.83 263.15 191.864 261.948 194.107 260.394C196.446 258.848 199.244 256.376 202.502 252.977C204.512 250.73 206.044 248.445 207.096 246.122C208.253 243.711 208.911 241.5 209.072 239.491C209.249 237.29 208.86 235.525 207.907 234.197C206.2 231.46 204.201 229.373 201.908 227.938C199.719 226.414 197.045 225.525 193.887 225.273C191.112 225.05 188.354 225.214 185.613 225.765L177.15 226.821C176.76 226.886 176.226 226.939 175.548 226.981C174.974 226.935 174.002 228.254 172.631 230.937C171.26 233.62 168.877 238.726 165.481 246.255C163.019 251.74 161.019 255.673 159.48 258.054C157.948 260.339 156.656 261.439 155.604 261.355C154.455 261.263 153.296 260.11 152.124 257.898C151.876 257.396 151.33 256.389 150.488 254.877C149.742 253.373 149.423 251.951 149.53 250.611C149.584 249.941 149.888 249.147 150.443 248.229C150.991 247.406 151.442 246.575 151.799 245.737C152.25 244.906 152.729 243.741 153.234 242.24C154.777 238.608 159.109 229.613 166.231 215.256C173.448 200.906 179.034 190.086 182.989 182.795C185.818 177.532 186.766 174.718 185.832 174.355C185.855 174.068 185.746 173.625 185.504 173.028C185.263 172.431 185.202 171.993 185.321 171.713C185.367 171.139 187.111 170.412 190.552 169.532C194.089 168.66 196.472 168.369 197.7 168.66L198.561 168.729C199.805 168.829 200.447 168.639 200.485 168.161C200.676 168.176 201.545 168.15 203.092 168.081C204.734 168.02 206.456 168.158 208.259 168.495C215.007 169.613 220.209 172.004 223.864 175.668C227.527 179.236 229.054 184.222 228.444 190.625C228.054 193.098 226.394 196.384 223.465 200.483C220.537 204.583 217.43 207.897 214.145 210.427C212.507 211.644 210.622 212.937 208.489 214.308C206.461 215.59 205.144 216.399 204.539 216.736L208.024 218.315C212.384 220.398 215.708 222.783 217.996 225.47C220.285 228.158 221.783 231.697 222.491 236.087C222.606 237.06 222.632 237.928 222.571 238.694C222.402 240.799 221.828 243.161 220.848 245.779C219.963 248.405 219.01 250.688 217.988 252.628C217.367 253.157 216.839 253.74 216.403 254.379C215.966 255.019 215.693 255.43 215.582 255.614C215.455 255.989 214.475 257.403 212.641 259.857C210.815 262.214 209.219 264.109 207.852 265.54C201.107 270.393 195.616 273.42 191.378 274.622C187.214 276.118 182.356 276.644 176.806 276.199C171.83 275.8 168.207 274.74 165.937 273.017ZM181.044 214.276C182.017 214.161 183.961 213.932 186.878 213.587C189.802 213.148 191.906 212.738 193.188 212.359C193.387 212.279 193.984 212.038 194.98 211.636C196.078 211.146 197.196 210.417 198.333 209.449C204.814 204.286 209.431 199.552 212.183 195.246C214.89 191.514 216.309 188.835 216.439 187.208C216.531 186.06 216.093 184.917 215.124 183.78C213.475 181.529 210.545 180.235 206.334 179.898C204.516 179.752 202.97 179.821 201.695 180.104C200.325 180.379 199.282 180.777 198.566 181.298C197.953 181.73 197.605 182.473 197.521 183.525C197.459 184.291 197.151 185.133 196.596 186.052C196.048 186.874 195.465 187.55 194.844 188.078C194.703 188.645 194.37 189.196 193.845 189.732C193.416 190.275 193.099 190.635 192.892 190.811C192.877 191.002 192.103 192.241 190.572 194.526C189.136 196.818 187.725 199.402 186.339 202.276C182.924 208.841 181.159 212.84 181.044 214.276ZM261.013 269.944C260.221 269.013 259.591 267.855 259.125 266.47C258.761 264.996 258.312 262.793 257.776 259.861C257.631 259.271 257.6 258.45 257.685 257.398C257.777 256.249 257.842 255.436 257.88 254.958C257.428 255.788 256.873 256.707 256.215 257.713C255.564 258.624 254.936 259.248 254.331 259.585C251.954 261.61 249.623 263.06 247.337 263.936C244.122 265.605 241.414 266.351 239.213 266.175C236.533 265.96 234.336 264.532 232.622 261.891C229.759 259.157 228.465 256.068 228.741 252.623C228.78 252.145 228.948 251.243 229.247 249.919C229.722 246.394 230.473 243.035 231.499 239.843C232.621 236.658 234.533 232.622 237.236 227.734L242.232 219.467L244.885 215.201C245.379 215.048 246.152 215.013 247.205 215.098C248.736 215.22 250.148 215.623 251.442 216.304C252.736 216.985 253.392 217.809 253.411 218.773C253.668 219.179 253.754 219.908 253.669 220.961C253.424 224.023 251.806 227.986 248.816 232.851L247.45 235.486C245.397 239.463 243.897 242.569 242.947 244.805C241.998 247.04 241.461 248.923 241.339 250.454C241.216 251.985 241.71 253.036 242.82 253.607C243.275 253.932 243.838 254.122 244.508 254.175C246.422 254.329 248.837 253.029 251.754 250.277C254.767 247.533 257.989 242.783 261.419 236.028C263.019 232.881 264.101 229.597 264.664 226.175C264.557 225.107 264.936 223.982 265.801 222.799C266.667 221.617 267.752 220.692 269.057 220.027C269.486 219.483 270.047 219.095 270.74 218.861C271.44 218.532 271.871 218.567 272.031 218.965L274.34 219.005C274.634 218.932 275.03 219.398 275.528 220.401C276.121 221.411 276.554 222.024 276.825 222.238C277.721 223.08 278.077 224.65 277.893 226.946C277.64 230.104 276.143 234.366 273.401 239.732C271.277 243.415 269.795 246.281 268.956 248.333C268.221 250.296 267.729 252.231 267.48 254.138C267.319 256.147 267.336 257.738 267.531 258.909C267.83 259.992 268.603 261.162 269.851 262.417C271.297 263.593 271.72 266.13 271.119 270.031C270.874 270.685 270.305 271.17 269.413 271.483C268.521 271.797 267.453 271.904 266.209 271.805C264.104 271.636 262.372 271.016 261.013 269.944ZM294.423 275.076C292.126 274.892 289.772 274.222 287.361 273.066C285.045 271.917 283.08 270.604 281.465 269.126C279.953 267.56 279.243 266.203 279.335 265.055C279.427 263.907 280.011 263.231 281.086 263.029L281.85 262.512C282.049 262.432 282.436 262.414 283.01 262.46C283.4 262.395 283.875 262.481 284.434 262.719C285 262.861 285.475 262.947 285.858 262.977C286.512 263.222 287.502 263.494 288.826 263.793L292.524 264.523C294.438 264.676 296.223 264.626 297.881 264.374C299.634 264.129 300.53 263.768 300.568 263.289C300.591 263.002 300.246 262.493 299.535 261.762C298.823 261.03 298.036 260.63 297.175 260.561C297.206 260.179 295.826 258.768 293.036 256.329C291.508 254.955 290.029 253.585 288.598 252.218C287.262 250.859 286.617 249.892 286.663 249.318L286.83 249.042L286.887 248.325C286.217 248.271 285.668 247.312 285.24 245.448C284.811 243.584 284.666 241.791 284.804 240.068C285.065 236.814 286.787 233.341 289.973 229.648C293.158 225.954 296.982 222.697 301.445 219.877C306.005 217.064 310.244 215.236 314.164 214.395C315.653 213.84 317.785 213.674 320.56 213.896C322.378 214.042 323.607 214.333 324.246 214.769L325.417 214.574C326.566 214.666 327.972 215.742 329.637 217.801C331.302 219.861 332.328 221.484 332.714 222.67C332.461 225.828 332.162 228.357 331.818 230.255C331.473 232.154 330.918 233.072 330.152 233.011C330.057 233.003 329.909 233.04 329.71 233.12C329.511 233.2 329.396 233.432 329.366 233.815C329.258 235.154 327.943 236.542 325.421 237.977C322.994 239.42 320.823 240.064 318.909 239.911L318.347 239.722C317.78 239.58 316.965 238.937 315.901 237.792C314.933 236.655 314.491 235.56 314.575 234.508C314.598 234.221 315.233 233.501 316.481 232.349C317.729 231.197 318.782 230.078 319.64 228.991C320.601 227.816 321.135 226.558 321.242 225.218C321.28 224.74 321.112 224.438 320.737 224.311C320.465 224.097 319.851 223.951 318.894 223.875C313.439 225.845 309.479 227.791 307.014 229.713C306.681 230.264 306.359 230.671 306.049 230.935C305.835 231.207 305.536 231.328 305.153 231.297C305.161 231.201 305.117 231.15 305.021 231.142C304.83 231.127 304.162 231.651 303.017 232.715C301.88 233.683 300.776 234.847 299.704 236.206C298.728 237.572 298.094 238.87 297.803 240.098L297.481 240.506L297.424 241.224C297.313 241.407 297.234 241.786 297.188 242.36C297.119 243.222 297.429 244.161 298.118 245.18C298.815 246.102 300.246 247.469 302.413 249.28C306.458 252.878 309.181 255.552 310.582 257.302C312.086 258.963 312.98 260.431 313.263 261.706C313.986 263.497 314.294 265.063 314.187 266.403C313.926 269.656 312 272.054 308.41 273.596C304.923 275.05 300.26 275.544 294.423 275.076Z" fill="#329BB3"/>
</svg>
