<svg width="704" height="103" viewBox="0 0 704 103" fill="none" xmlns="http://www.w3.org/2000/svg">
<path d="M88.416 8.26399H75.312V0.199993H111.024V8.26399H99.216L65.808 101H49.824L12.384 8.26399H0V0.199993H44.208V8.26399H30.384L56.304 75.512L60.48 89.192H61.056L65.376 75.224L88.416 8.26399ZM184.246 101H138.454V92.936H153.286V8.26399H127.51L124.63 11.432V30.008H114.262V0.199993H208.438V30.008H198.07V11.432L195.19 8.26399H169.414V92.936H184.246V101ZM233.702 101H198.422V92.936H209.654L246.95 0.199993H262.214L296.342 92.936H307.142V101H265.958V92.936H278.774L269.414 67.592H231.11L221.318 92.936H233.702V101ZM234.422 59.528H266.966L255.158 26.264L251.558 11H250.982L246.806 26.552L234.422 59.528ZM311.733 8.26399V0.199993H356.517V8.26399H340.965V92.936H379.269L382.149 89.768V69.896H392.517V101H311.733V92.936H324.837V8.26399H311.733ZM476.091 0.199993V23.816H466.875V11.432L463.995 8.26399H428.715V45.56H453.051L455.211 43.4V37.352H464.427V61.976H455.211V55.928L453.051 53.624H428.715V92.936H466.443L469.323 90.056V75.944H478.539V101H399.483V92.936H412.587V8.26399H399.483V0.199993H476.091ZM565.736 0.199993H601.16V8.26399H588.056V102.728H578.696L520.088 23.672L513.752 12.584H513.176L514.616 23.816V92.936H527.72V101H492.296V92.936H505.4V8.26399H492.296V0.199993H521.096L571.496 68.024L578.984 80.408H579.704L578.84 68.024V8.26399H565.736V0.199993ZM678.965 101H633.173V92.936H648.005V8.26399H622.229L619.349 11.432V30.008H608.981V0.199993H703.157V30.008H692.789V11.432L689.909 8.26399H664.133V92.936H678.965V101Z" fill="url(#paint0_linear_40_47)"/>
<defs>
<linearGradient id="paint0_linear_40_47" x1="372" y1="-45" x2="372" y2="158" gradientUnits="userSpaceOnUse">
<stop stop-color="#FF0202"/>
<stop offset="0.625" stop-color="#B60259"/>
<stop offset="1" stop-color="#3502FF"/>
</linearGradient>
</defs>
</svg>
